<!-- icon666.com - MILLIONS vector ICONS FREE --><svg id="Capa_1" enable-background="new 0 0 512 512" viewBox="0 0 512 512" xmlns="http://www.w3.org/2000/svg"><g><path fill="coral" d="m77.719 512h37.46c43.635 0 84.813-21.21 110.15-56.736l70.848-99.338h-135.737z"></path><path fill="coral" d="m225.329 56.735c-25.337-35.525-66.515-56.735-110.15-56.735h-37.63l98.457 183.103h140.361z"></path><path fill="coral" d="m43.084 111.438h-43.084v71.665h73.838z"></path><path fill="coral" d="m430.539 281.278c-33.64 0-61.008-27.368-61.008-61.008v-8.167h-369.531v6.506c0 59.726 48.59 108.316 108.316 108.316h403.684v-5.325c0-14.232-2.731-27.837-7.694-40.322z"></path><path fill="coral" d="m399.531 220.27c0 17.098 13.91 31.008 31.008 31.008h55.824c-20.102-23.933-50.232-39.175-83.859-39.175h-2.972v8.167z"></path><path fill="coral" d="m443.919 116.775 58.016-58.016c13.42-13.421 13.42-35.257 0-48.677-6.501-6.502-15.145-10.082-24.338-10.082-9.194 0-17.838 3.58-24.339 10.082l-9.153 9.153-9.153-9.153c-13.42-13.42-35.257-13.42-48.677 0s-13.42 35.257-.022 48.655z"></path></g></svg>